# Blender3D v249 OBJ File: LEVEL.blend
# www.blender3d.org
mtllib lev1pyramid.mtl
v 1.917705 0.000997 0.809675
v 2.026225 0.000997 1.214675
v 1.917705 0.000997 1.619675
v 1.621225 0.000997 1.916156
v 1.216225 0.000997 2.024675
v 0.811225 0.000997 1.916156
v 0.514744 0.000997 1.619675
v 0.406225 0.000997 1.214675
v 0.514744 0.000997 0.809675
v 0.811224 0.000997 0.513195
v 1.216224 0.000997 0.404675
v 1.621224 0.000997 0.513194
v 1.216225 2.000997 1.214675
v 1.216225 0.000997 1.214675
vt 0.000000 0.000000
vt 1.000000 0.000000
vt 1.000000 1.000000
vn 0.899543 0.364315 -0.241032
vn 0.899543 0.364315 0.241032
vn 0.658511 0.364315 0.658512
vn 0.241032 0.364315 0.899543
vn -0.241032 0.364315 0.899543
vn -0.658511 0.364315 0.658512
vn -0.899543 0.364315 0.241032
vn -0.899543 0.364315 -0.241031
vn -0.658512 0.364315 -0.658511
vn -0.241033 0.364315 -0.899543
vn 0.241031 0.364315 -0.899544
vn 0.658511 0.364315 -0.658512
vn 0.000000 -1.000000 0.000000
usemtl None_steel.bmp
s off
f 2/1/1 1/2/1 13/3/1
f 13/1/2 3/2/2 2/3/2
f 13/1/3 4/2/3 3/3/3
f 13/1/4 5/2/4 4/3/4
f 13/1/5 6/2/5 5/3/5
f 13/1/6 7/2/6 6/3/6
f 13/1/7 8/2/7 7/3/7
f 13/1/8 9/2/8 8/3/8
f 13/1/9 10/2/9 9/3/9
f 13/1/10 11/2/10 10/3/10
f 13/1/11 12/2/11 11/3/11
f 13/1/12 1/2/12 12/3/12
f 14/1/13 1/2/13 2/3/13
f 14/1/13 2/2/13 3/3/13
f 14/1/13 3/2/13 4/3/13
f 14/1/13 4/2/13 5/3/13
f 14/1/13 5/2/13 6/3/13
f 14/1/13 6/2/13 7/3/13
f 14/1/13 7/2/13 8/3/13
f 14/1/13 8/2/13 9/3/13
f 14/1/13 9/2/13 10/3/13
f 14/1/13 10/2/13 11/3/13
f 14/1/13 11/2/13 12/3/13
f 12/1/13 1/2/13 14/3/13
