# Blender3D v249 OBJ File: LEVEL.blend
# www.blender3d.org
mtllib lev1yellowarrow.mtl
v 0.445434 0.812226 -1.976886
v 0.448713 0.690147 -1.976886
v 0.532820 0.778692 -1.976886
v 0.557187 0.769341 -1.976886
v 0.449664 0.658292 -1.976886
v 0.426697 0.667106 -1.976886
v 0.421066 0.821577 -1.976886
v 0.509075 0.791339 -1.976886
v 0.559807 0.923539 -1.976886
v 0.582774 0.914725 -1.976886
v 0.532042 0.782525 -1.976886
v 0.448016 0.814770 -1.976886
v 0.498748 0.946970 -1.976886
v 0.521715 0.938156 -1.976886
v 0.470983 0.805956 -1.976886
v 0.445434 0.812226 -1.996886
v 0.448713 0.690147 -1.996886
v 0.532820 0.778692 -1.996886
v 0.557187 0.769341 -1.996886
v 0.449664 0.658292 -1.996886
v 0.426697 0.667106 -1.996886
v 0.421066 0.821577 -1.996886
v 0.509075 0.791339 -1.996886
v 0.559807 0.923539 -1.996886
v 0.582774 0.914725 -1.996886
v 0.532042 0.782525 -1.996886
v 0.448016 0.814770 -1.996886
v 0.498748 0.946970 -1.996886
v 0.521715 0.938156 -1.996886
v 0.470983 0.805956 -1.996886
v 0.509075 0.791339 -1.996886
v 0.509075 0.791339 -1.976886
v 0.559807 0.923539 -1.996886
v 0.559807 0.923539 -1.976886
v 0.582774 0.914725 -1.996886
v 0.582774 0.914725 -1.976886
v 0.532042 0.782525 -1.996886
v 0.532042 0.782525 -1.976886
v 0.448016 0.814770 -1.996886
v 0.448016 0.814770 -1.976886
v 0.498748 0.946970 -1.996886
v 0.498748 0.946970 -1.976886
v 0.521715 0.938156 -1.996886
v 0.521715 0.938156 -1.976886
v 0.470983 0.805956 -1.996886
v 0.470983 0.805956 -1.976886
v 0.445434 0.812226 -1.996886
v 0.445434 0.812226 -1.976886
v 0.448713 0.690147 -1.996886
v 0.448713 0.690147 -1.976886
v 0.532820 0.778692 -1.996886
v 0.532820 0.778692 -1.976886
v 0.557187 0.769341 -1.996886
v 0.557187 0.769341 -1.976886
v 0.449664 0.658292 -1.996886
v 0.449664 0.658292 -1.976886
v 0.426697 0.667106 -1.996886
v 0.426697 0.667106 -1.976886
v 0.421066 0.821577 -1.996886
v 0.421066 0.821577 -1.976886
vt 0.000000 0.000000
vt 1.000000 0.000000
vt 1.000000 1.000000
vt 0.000000 1.000000
vn 0.000000 0.000000 1.000000
vn -0.152623 0.988250 0.000000
vn 0.922361 0.386273 0.000000
vn 0.671438 0.741050 0.000000
vn -0.885495 0.464644 0.000000
vn -0.919645 -0.392712 0.000000
vn -0.669515 -0.742790 0.000000
vn 0.000702 -0.999969 0.000000
vn 0.420820 -0.907132 0.000000
vn 0.968993 -0.247017 0.000000
vn 0.774590 0.632435 0.000000
vn -0.003296 0.999969 0.000000
vn -0.427137 0.904172 0.000000
vn -0.305429 0.952208 0.000000
vn 0.864040 0.503403 0.000000
vn 0.097049 -0.995270 0.000000
vn -0.995270 -0.097049 0.000000
vn -0.737968 -0.674825 0.000000
vn 0.674825 -0.737968 0.000000
vn 0.995270 0.097049 0.000000
vn 0.737968 0.674795 0.000000
vn -0.097049 0.995270 0.000000
vn -0.674825 0.737968 0.000000
vn 0.737968 0.674825 0.000000
usemtl (null)
s off
f 3/1/1 5/1/1 4/1/1
f 2/1/1 5/1/1 3/1/1
f 2/1/1 6/1/1 5/1/1
f 1/1/1 6/1/1 2/1/1
f 1/1/1 7/1/1 6/1/1
f 13/1/1 15/1/1 14/1/1
f 13/1/1 12/1/1 15/1/1
f 9/1/1 11/1/1 10/1/1
f 9/1/1 8/1/1 11/1/1
f 18/1/1 20/1/1 19/1/1
f 17/1/1 20/1/1 18/1/1
f 17/1/1 21/1/1 20/1/1
f 16/1/1 21/1/1 17/1/1
f 16/1/1 22/1/1 21/1/1
f 28/1/1 30/1/1 29/1/1
f 28/1/1 27/1/1 30/1/1
f 24/1/1 26/1/1 25/1/1
f 24/1/1 23/1/1 26/1/1
s 1
f 60/1/2 48/1/3 47/1/4
f 60/1/2 47/1/4 59/1/5
f 58/1/6 60/1/2 59/1/5
f 58/1/6 59/1/5 57/1/7
f 56/1/8 58/1/6 57/1/7
f 56/1/8 57/1/7 55/1/9
f 54/1/10 56/1/8 55/1/9
f 54/1/10 55/1/9 53/1/11
f 52/1/12 54/1/10 53/1/11
f 52/1/12 53/1/11 51/1/13
f 50/1/14 52/1/12 51/1/13
f 50/1/14 51/1/13 49/1/15
f 48/1/3 50/1/14 49/1/15
f 48/1/3 49/1/15 47/1/4
f 46/1/16 40/1/17 39/1/18
f 46/1/16 39/1/18 45/1/19
f 44/1/20 46/1/16 45/1/19
f 44/1/20 45/1/19 43/1/21
f 42/1/22 44/1/20 43/1/21
f 42/1/22 43/1/21 41/1/23
f 40/1/17 42/1/22 41/1/23
f 40/1/17 41/1/23 39/1/18
f 38/1/16 32/1/17 31/1/18
f 38/1/16 31/1/18 37/1/19
f 36/1/20 38/1/16 37/1/19
f 36/1/20 37/1/19 35/1/24
f 34/1/22 36/1/20 35/1/24
f 34/1/22 35/1/24 33/1/23
f 32/1/17 34/1/22 33/1/23
f 32/1/17 33/1/23 31/1/18
