# Blender3D v249 OBJ File: 
# www.blender3d.org
mtllib room.mtl
v 4.000000 -0.000000 -3.000000
v 4.000000 0.000000 3.000000
v -4.000001 0.000000 2.999999
v -3.999999 -0.000000 -3.000001
v 4.000002 4.000000 -2.999999
v 3.999997 4.000000 3.000001
v -4.000002 4.000000 2.999998
v -4.000000 4.000000 -3.000000
vt 0.000000 0.000000
vt 1.000000 0.000000
vt 1.000000 1.000000
vt 0.000000 1.000000
vn 0.577349 -0.577349 -0.577349
vn 0.577349 -0.577349 0.577349
vn -0.577349 -0.577349 0.577349
vn -0.577349 -0.577349 -0.577349
vn 0.577349 0.577349 -0.577349
vn -0.577349 0.577349 -0.577349
vn -0.577349 0.577349 0.577349
vn 0.577349 0.577349 0.577349
usemtl Material_steel.bmp
s 1
f 1/1/1 2/2/2 3/3/3 4/4/4
f 5/1/5 8/2/6 7/3/7 6/4/8
f 1/1/1 5/2/5 6/3/8 2/4/2
f 2/1/2 6/2/8 7/3/7 3/4/3
f 3/1/3 7/2/7 8/3/6 4/4/4
f 5/1/5 1/2/1 4/3/4 8/4/6
